<svg version="1.1" id="Layer_3" xmlns="http://www.w3.org/2000/svg" x="0" y="0" viewBox="0 0 1500 2000" xml:space="preserve"><style>.st1{fill:#e0e0e0}.st2{fill:#c5c5c4}.st3{fill:#5f6060}.st4{fill:#4a494a}</style><path id="XMLID_24_" fill="#b7b7b7" d="M720 1983l-529-56 529-376z"/><path id="XMLID_21_" class="st1" d="M829 1474l-109 77-9 16v407l9 9 638-454-20-13-507-50z"/><path id="XMLID_25_" class="st2" d="M720 991l638 538-529-55-109-94-7-5-4-390z"/><path id="XMLID_26_" class="st1" d="M779 514l-59 44-11 8v424l11 1 590-420-13-5-518-56z"/><path id="XMLID_27_" class="st2" d="M720 463l59 51 531 57L720 73l-6 4v381z"/><path id="XMLID_32_" class="st3" d="M720 73v1910l-529-56V18z"/><path id="XMLID_31_" class="st3" d="M720 961v68l-529-94z"/><path id="XMLID_15_" class="st4" d="M191 935l529-377v-95L191 18z"/><path id="XMLID_19_" class="st4" d="M191 1927l529-376v-171L191 935z"/><path id="XMLID_20_" fill="#848484" d="M191 18l529 55v390z"/><path id="XMLID_22_" fill="#6d6d6d" d="M720 991l-529-56 529 445z"/><path id="XMLID_23_" class="st3" d="M720 558.9V991l-529-55.9z"/></svg>
