<?xml version="1.0" standalone="no"?>
<!DOCTYPE svg PUBLIC "-//W3C//DTD SVG 20010904//EN"
 "http://www.w3.org/TR/2001/REC-SVG-20010904/DTD/svg10.dtd">
<svg version="1.0" xmlns="http://www.w3.org/2000/svg"
 width="500.000000pt" height="500.000000pt" viewBox="0 0 500.000000 500.000000"
 preserveAspectRatio="xMidYMid meet">
<metadata>
Created by potrace 1.11, written by Peter Selinger 2001-2013
</metadata>
<g transform="translate(0.000000,500.000000) scale(0.100000,-0.100000)"
fill="#000000" stroke="none">
<path d="M602 4397 l-602 -602 0 -1898 0 -1897 1902 0 1903 0 597 597 598 598
0 1902 0 1903 -1898 0 -1897 0 -603 -603z m1248 115 l545 -57 605 -509 c333
-280 613 -516 623 -526 18 -17 -6 -35 -602 -456 -341 -242 -619 -442 -618
-446 2 -6 1229 -1041 1316 -1109 21 -17 23 -22 10 -33 -23 -21 -1319 -937
-1335 -943 -8 -3 -264 21 -569 53 -518 54 -554 59 -538 75 10 9 304 218 653
464 349 246 643 455 653 465 18 16 13 22 -114 131 -73 63 -374 316 -669 563
-294 246 -536 449 -538 450 -3 3 1085 776 1093 776 2 0 6 -197 8 -437 l2 -438
2 445 1 445 67 50 66 50 -29 25 c-16 14 -291 245 -613 514 -321 269 -588 493
-593 498 -14 12 -27 13 574 -50z"/>
</g>
</svg>
